<svg version="1.2" xmlns="http://www.w3.org/2000/svg" viewBox="0 0 24 24" width="24" height="24">
	<title>tennis-2-svgrepo-com</title>
	<style>
		.s0 { fill: #ffff00 } 
	</style>
	<path fill-rule="evenodd" class="s0" d="m13.8 3.1q0-0.4 0.1-0.6v-0.3c2.8 0.5 5.3 2.2 6.8 4.8 1.5 2.6 1.7 5.6 0.8 8.2h-0.1q-0.1 0-0.2-0.1-0.2 0-0.6-0.2c-0.4-0.1-0.8 0-1 0.4-0.1 0.4 0 0.8 0.4 1q0.5 0.2 0.7 0.3 0.1 0 0.2 0c-0.9 1.6-2.2 3.1-3.9 4.1-1.7 0.9-3.6 1.4-5.4 1.3q0-0.1 0-0.2 0-0.2 0.1-0.7c0.1-0.4-0.2-0.8-0.6-0.8-0.5-0.1-0.8 0.2-0.9 0.6q0 0.4-0.1 0.6v0.3c-2.8-0.5-5.3-2.2-6.8-4.8-1.5-2.6-1.7-5.6-0.8-8.2 0.1 0 0.2 0 0.3 0.1q0.2 0 0.6 0.2c0.4 0.1 0.8 0 1-0.4 0.1-0.4 0-0.8-0.4-1q-0.5-0.2-0.7-0.3-0.1 0-0.2 0c0.9-1.6 2.2-3.1 3.9-4.1 1.7-0.9 3.6-1.4 5.4-1.3q0 0.1 0 0.2 0 0.2-0.1 0.7c-0.1 0.4 0.2 0.8 0.6 0.8 0.5 0.1 0.8-0.2 0.9-0.6zm-1.5 2.5q0 0.9 0.3 1.9c0.1 0.4 0.5 0.7 0.9 0.6 0.4-0.1 0.6-0.5 0.5-1q-0.2-0.9-0.2-1.7c-0.1-0.4-0.4-0.7-0.9-0.7-0.4 0.1-0.7 0.4-0.6 0.9zm-6.9 4.6q0.7 0.5 1.4 1.1c0.3 0.3 0.7 0.3 1 0 0.3-0.3 0.3-0.7 0-1q-0.8-0.8-1.5-1.3c-0.4-0.2-0.8-0.2-1.1 0.2-0.2 0.3-0.1 0.8 0.2 1zm8.1-0.2q0.2 0.4 0.4 0.9 0.3 0.4 0.6 0.8c0.2 0.4 0.7 0.4 1 0.2 0.4-0.2 0.4-0.7 0.2-1q-0.2-0.4-0.5-0.8-0.2-0.4-0.4-0.8c-0.1-0.3-0.6-0.5-1-0.3-0.3 0.2-0.5 0.6-0.3 1zm-5.2 3.1q0.2 0.4 0.5 0.8 0.2 0.4 0.4 0.8c0.1 0.3 0.6 0.5 1 0.3 0.3-0.2 0.5-0.6 0.3-1q-0.2-0.4-0.4-0.9-0.3-0.4-0.6-0.8c-0.2-0.4-0.7-0.4-1-0.2-0.4 0.2-0.4 0.7-0.2 1zm7.9 0.6q0.8 0.8 1.5 1.3c0.4 0.2 0.8 0.2 1.1-0.2 0.2-0.3 0.1-0.8-0.2-1q-0.7-0.5-1.4-1.1c-0.3-0.3-0.7-0.3-1 0-0.3 0.3-0.3 0.7 0 1zm-6.2 3.2q0.2 0.9 0.2 1.7c0.1 0.4 0.4 0.7 0.9 0.7 0.4-0.1 0.7-0.4 0.6-0.9q0-0.9-0.3-1.9c-0.1-0.4-0.5-0.7-0.9-0.6-0.4 0.1-0.6 0.5-0.5 1z"/>
</svg>